@startuml


package  common-cloud-core #lightgray {
  interface CLI
  interface Web
  interface REST
  package Portal #lightblue {
    component portal #white
    component applicationManager #white
    component stackManager #white
    component operationsManager #white
  }
  package Orchestrator #pink {
    component applicationOrchestrator #white
    component environmentManager #white
    component policyManager #white
    component applicationAnalytics #white
  }
  package "Registry" #lightgreen {
    component identityManager #white
    component artifactRepository #white
    database "identityRepo" #white
    database "artifactRepo" #white
  }
  package "Control" #lightyellow {
    component cloudBroker #white
    component dataCoordinator #white
    component provisionEngine #white
  }
}

rectangle ports {
    80 .. Web
    5432 .. REST
}

identityManager -- identityRepo
artifactRepository -- artifactRepo

CLI -- portal
Web -- portal
REST -- portal

portal -- applicationManager
portal -- stackManager
portal -- operationsManager

Portal ---> Orchestrator
Portal ---> Registry
Registry ---> Control
Orchestrator ---> Control
@enduml

