@startuml

package "Artifact Repository" #lightblue {
  interface CLI
  interface Web
  interface REST
  folder bin #ffffff {
    component artifact
  }

  folder "Repo" #ffffff {
    component sails.io
    component sailsjs
  }
}

CLI -- artifact
artifact --  REST
Web -- sailsjs
Web -- REST
REST -- sailsjs
Web -- sails.io

@enduml
