@startuml

package "Provision Engine" #lightblue {
    interface CLI
    interface Web
    interface REST
    folder C3 #ffffff {
        component sailsjs
        component sails.io
    }
    folder bin #ffffff {
      component provision
    }
    folder "provision-engine" #ffffff {
        component micro as pemicro
    }
}
CLI -- provision
provision -- REST
Web -- sailsjs
Web -- REST
REST -- sailsjs

Web -- sails.io
REST -- pemicro

@enduml

