@startuml

package "Policy Manager" #lightblue {
    interface CLI
    interface Web
    interface REST
    folder C3 #ffffff {
        component sailsjs
        component sails.io
    }
    folder bin #ffffff {
      component policy
    }
    folder "policy-manager" #ffffff {
        component micro as ommicro
    }
}
CLI -- policy
policy -- REST
Web -- sailsjs
Web -- REST
REST -- sailsjs

Web -- sails.io
REST -- ommicro

@enduml

