@startuml

package "Identity Manager" #lightblue {
    interface CLI
    interface Web
    interface REST
    folder C3 #ffffff {
        component sailsjs
        component sails.io
    }
    folder bin #ffffff {
      component coordinate
    }
    folder "identity-manager" #ffffff {
        component micro as emmicro
    }
}
CLI -- coordinate
coordinate -- REST
Web -- sailsjs
Web -- REST
REST -- sailsjs

Web -- sails.io
REST -- emmicro

@enduml
