@startuml
package "Application Orchestrator" #lightblue {
    interface CLI
    interface Web
    interface REST
    folder analyzer #ffffff {
        component sailsjs
        component sails.io
    }
    folder bin #ffffff {
      component app
    }
    folder "app-orchestrator" #ffffff {
      component micro
    }
}
CLI -- app
app -- REST
Web -- sailsjs
Web -- REST
REST -- sailsjs
Web -- sails.io
REST -- micro

@enduml
