@startuml
package "Application Manager" #lightblue {
    interface CLI
    interface Web
    interface REST
    folder "app-manager" #ffffff {
        component sailsjs
        component sails.io
    }
    folder bin #ffffff {
      component app
      component env
    }
}
CLI -- app
CLI -- env
app -- REST
env -- REST
Web -- sailsjs
Web -- REST
REST -- sailsjs

Web -- sails.io
@enduml
